<?xml version="1.0" standalone="no"?>
<!DOCTYPE svg PUBLIC "-//W3C//DTD SVG 20010904//EN"
 "http://www.w3.org/TR/2001/REC-SVG-20010904/DTD/svg10.dtd">
<svg version="1.0" xmlns="http://www.w3.org/2000/svg"
 width="110.000000pt" height="111.000000pt" viewBox="0 0 110.000000 111.000000"
 preserveAspectRatio="xMidYMid meet">

<g transform="translate(0.000000,111.000000) scale(0.100000,-0.100000)"
fill="#000000" stroke="none">
<path d="M157 703 c-100 -98 -123 -133 -85 -133 8 0 54 -40 103 -90 90 -91
111 -103 122 -74 4 11 -17 39 -68 90 l-73 74 399 0 399 0 -73 -74 c-51 -51
-72 -79 -68 -90 4 -9 12 -16 19 -16 14 0 213 191 213 205 0 14 -209 215 -223
215 -7 0 -15 -7 -19 -16 -4 -11 19 -40 73 -95 l79 -79 -405 0 -405 0 79 79
c54 55 77 84 73 95 -4 9 -12 16 -19 16 -7 0 -62 -48 -121 -107z"/>
</g>
</svg>
