<?xml version="1.0" standalone="no"?>
<!DOCTYPE svg PUBLIC "-//W3C//DTD SVG 20010904//EN"
 "http://www.w3.org/TR/2001/REC-SVG-20010904/DTD/svg10.dtd">
<svg version="1.0" xmlns="http://www.w3.org/2000/svg"
 width="110.000000pt" height="111.000000pt" viewBox="0 0 110.000000 111.000000"
 preserveAspectRatio="xMidYMid meet">

<g transform="translate(0.000000,111.000000) scale(0.100000,-0.100000)"
fill="#000000" stroke="none">
<path d="M251 886 c-51 -51 -72 -79 -68 -90 10 -26 30 -19 77 29 l45 46 5
-338 c5 -330 5 -338 25 -338 20 0 20 8 25 338 l5 338 45 -46 c47 -48 67 -55
77 -29 4 11 -17 39 -68 90 -40 41 -78 74 -84 74 -6 0 -44 -33 -84 -74z"/>
<path d="M767 934 c-4 -4 -7 -156 -7 -338 l0 -330 -44 43 c-43 42 -76 50 -76
19 0 -19 132 -148 151 -148 24 0 163 146 156 164 -10 27 -31 18 -82 -34 l-50
-51 -5 338 c-4 294 -7 338 -20 341 -9 1 -19 0 -23 -4z"/>
</g>
</svg>
