<?xml version="1.0" standalone="no"?>
<!DOCTYPE svg PUBLIC "-//W3C//DTD SVG 20010904//EN"
 "http://www.w3.org/TR/2001/REC-SVG-20010904/DTD/svg10.dtd">
<svg version="1.0" xmlns="http://www.w3.org/2000/svg"
 width="364.000000pt" height="364.000000pt" viewBox="0 0 364.000000 364.000000"
 preserveAspectRatio="xMidYMid meet">

<g transform="translate(0.000000,364.000000) scale(0.100000,-0.100000)"
fill="#000000" stroke="none">
<path d="M1790 3486 l0 -144 -77 -8 c-43 -4 -96 -8 -117 -8 l-40 -1 -23 115
c-32 162 -31 160 -51 160 -42 -1 -43 -11 -17 -140 14 -67 25 -130 25 -140 0
-12 -23 -23 -92 -44 -51 -15 -101 -29 -110 -33 -12 -3 -20 2 -27 18 -5 13 -30
75 -56 136 l-47 113 -28 -15 -28 -15 64 -157 c35 -87 65 -162 67 -167 1 -4 30
3 62 17 67 28 204 71 209 66 4 -6 46 -222 43 -224 -1 -1 -40 -14 -87 -29 -131
-41 -295 -128 -391 -206 l-84 -69 -83 82 -83 82 38 33 c21 18 67 54 103 79 36
26 69 50 74 54 7 6 -147 250 -185 293 -5 5 -19 2 -34 -8 l-25 -17 81 -120 c44
-67 77 -124 72 -128 -4 -4 -45 -38 -90 -75 -86 -70 -184 -171 -236 -243 -17
-24 -35 -43 -41 -43 -6 0 -62 34 -123 75 -62 41 -114 75 -117 75 -2 0 -11 -11
-20 -24 l-16 -25 138 -93 c75 -52 142 -97 148 -101 7 -4 30 19 58 61 26 37 64
87 86 112 l40 45 81 -81 82 -82 -65 -83 c-60 -78 -136 -199 -152 -243 -3 -10
-12 -16 -19 -13 -6 3 -128 53 -270 112 -142 59 -262 103 -267 99 -4 -5 -11
-18 -14 -30 -6 -18 17 -30 256 -129 145 -59 280 -117 301 -127 l37 -19 35 77
c20 43 60 114 90 160 81 122 274 310 294 288 5 -5 33 -47 64 -93 l56 -84 -88
-86 c-136 -133 -216 -268 -266 -447 -2 -8 -38 -4 -117 13 -149 32 -141 30
-313 63 -82 16 -216 42 -297 58 -138 27 -148 28 -148 11 0 -9 -2 -24 -5 -31
-4 -11 17 -18 87 -31 51 -10 129 -26 173 -37 44 -11 154 -33 245 -50 91 -17
219 -42 286 -56 67 -13 126 -24 132 -24 5 0 13 19 17 43 18 106 99 275 180
372 l25 30 82 -82 82 -82 -41 -58 c-22 -32 -49 -76 -60 -98 -50 -99 -69 -308
-37 -414 8 -30 12 -57 7 -61 -6 -6 -219 -95 -470 -197 -12 -5 -45 87 -58 164
-4 24 -10 45 -13 47 -4 2 -70 -9 -146 -25 -76 -16 -140 -28 -142 -26 -8 8 -24
149 -24 216 l0 74 -52 -7 c-29 -3 -110 -6 -180 -6 l-128 0 0 -30 0 -30 148 0
149 0 7 -97 c4 -54 8 -107 9 -117 2 -17 -10 -22 -88 -38 -216 -43 -196 -36
-189 -66 4 -15 8 -28 10 -30 1 -2 61 8 134 23 135 27 160 27 160 0 0 -8 13
-55 29 -104 l29 -90 -112 -47 c-61 -25 -121 -50 -134 -55 -12 -5 -22 -11 -22
-14 0 -5 19 -45 25 -53 1 -1 51 19 111 44 60 25 133 55 162 66 56 21 60 28 37
71 -31 61 -77 227 -61 227 2 0 49 9 106 21 56 11 105 17 109 12 4 -4 18 -44
31 -88 41 -140 181 -384 253 -444 9 -7 17 -19 17 -25 0 -6 -35 -47 -78 -89
l-79 -78 -48 53 c-26 29 -65 79 -87 111 -22 32 -43 57 -47 55 -17 -8 -290
-194 -290 -198 0 -3 7 -15 17 -27 l17 -23 120 80 120 80 23 -27 c13 -16 46
-54 73 -85 27 -31 49 -60 49 -65 0 -4 -46 -54 -102 -110 -101 -101 -102 -102
-83 -123 10 -11 23 -20 29 -20 6 0 56 46 112 101 l102 102 59 -51 c32 -28 70
-61 86 -74 l27 -23 -80 -120 -80 -120 23 -17 c12 -10 24 -18 27 -18 6 0 200
286 200 294 0 3 -26 23 -58 44 -32 22 -80 60 -107 85 l-50 46 104 105 105 105
-60 63 c-91 95 -216 290 -198 307 9 8 479 202 521 215 22 7 22 9 8 43 -23 54
-45 158 -45 210 0 68 20 174 34 179 7 3 71 -20 142 -50 l129 -54 22 46 c31 61
57 88 118 118 59 28 133 33 205 14 62 -17 143 -98 160 -160 20 -75 8 -171 -28
-227 -48 -73 -132 -122 -214 -123 l-38 0 0 -300 c0 -165 -4 -300 -9 -300 -37
0 -193 35 -247 55 -37 14 -69 23 -71 21 -3 -2 -35 -80 -73 -173 -38 -92 -118
-287 -179 -433 -60 -146 -106 -268 -103 -272 4 -4 18 -9 31 -10 22 -3 34 22
189 397 91 220 167 402 168 404 2 2 40 -6 86 -17 46 -12 111 -24 146 -28 l62
-7 0 -263 0 -264 -42 0 c-24 0 -72 5 -108 11 -36 5 -81 12 -100 15 l-35 6 -33
-172 c-18 -95 -31 -174 -30 -175 2 -1 15 -5 30 -9 32 -7 26 -21 62 157 13 65
25 119 27 121 2 2 27 0 54 -4 28 -5 78 -9 113 -9 l62 -1 0 -150 0 -150 30 0
29 0 3 147 3 148 93 7 c51 3 103 9 116 12 23 6 24 2 51 -137 15 -78 29 -143
30 -145 1 -1 15 1 32 4 l30 6 -28 136 c-16 76 -28 148 -29 162 -1 48 -12 54
-77 41 -33 -6 -96 -14 -141 -18 l-81 -6 0 561 0 560 36 7 c92 17 198 99 234
181 11 24 25 74 32 111 l12 67 106 21 107 22 5 -39 c8 -61 -12 -177 -44 -252
-55 -128 -143 -224 -259 -280 -36 -17 -67 -32 -69 -33 -4 -3 -2 -9 83 -213 31
-74 75 -180 97 -235 59 -146 113 -277 159 -385 23 -52 62 -146 87 -207 26 -62
52 -113 58 -113 6 0 20 6 30 14 22 16 48 -52 -293 766 -113 272 -132 320 -132
329 0 5 20 21 45 35 68 40 160 130 205 202 22 35 42 64 44 64 2 0 23 -8 47
-19 24 -10 87 -37 139 -58 52 -22 141 -59 198 -83 l103 -42 -35 -63 c-47 -86
-129 -201 -184 -258 l-46 -47 104 -106 105 -105 -40 -36 c-22 -19 -71 -58
-110 -85 -38 -27 -69 -53 -68 -58 1 -4 45 -71 98 -149 85 -124 98 -140 115
-131 10 6 22 15 26 21 3 6 -28 61 -70 122 -42 62 -76 117 -76 122 0 6 8 15 18
22 10 6 49 37 86 68 l68 58 104 -104 104 -104 25 25 25 25 -104 104 -104 104
51 61 c29 34 61 74 73 90 l21 29 121 -82 121 -81 17 25 c10 15 13 29 8 34 -43
38 -287 193 -292 185 -68 -99 -89 -127 -126 -169 l-45 -50 -81 81 -82 81 69
86 c83 104 171 268 209 392 15 50 28 91 30 93 4 6 224 -41 224 -47 0 -20 -44
-158 -65 -207 -25 -56 -23 -73 8 -74 5 0 74 -27 154 -60 80 -34 146 -60 147
-58 1 2 7 15 13 29 l12 27 -127 52 c-70 29 -130 56 -134 59 -5 5 48 204 59
220 1 2 63 -8 138 -23 74 -15 140 -24 145 -21 17 10 11 53 -7 59 -10 3 -70 15
-133 27 -63 12 -118 25 -122 28 -5 4 -3 57 4 119 l11 112 143 0 144 0 0 30 0
30 -145 2 c-80 1 -160 2 -177 2 l-33 1 -1 -74 c-2 -96 -14 -200 -23 -205 -4
-3 -70 9 -146 25 -77 16 -141 29 -142 29 -1 0 -5 -17 -9 -37 -8 -50 -34 -144
-45 -165 -10 -18 17 -28 -329 115 -176 72 -162 55 -140 187 27 160 -16 335
-113 462 l-35 45 82 82 82 82 21 -23 c11 -13 33 -42 48 -65 16 -25 32 -40 39
-36 6 4 59 40 117 80 59 40 111 73 117 73 14 0 106 -193 131 -274 12 -37 21
-83 21 -102 0 -26 4 -34 18 -34 9 0 155 27 325 61 299 61 307 63 307 86 0 13
-6 26 -14 29 -11 4 -501 -85 -556 -101 -12 -4 -22 17 -45 93 -16 53 -50 140
-77 192 -26 52 -44 97 -40 101 7 6 148 100 169 112 14 9 80 -99 113 -184 12
-30 23 -56 25 -58 2 -2 78 28 168 65 l164 69 -9 27 c-6 16 -13 28 -18 28 -4 0
-66 -24 -137 -54 l-129 -53 -54 103 c-56 107 -106 180 -189 275 l-49 56 104
104 104 104 -25 25 -25 25 -127 -128 -128 -127 56 -57 c57 -59 129 -146 129
-155 0 -3 -44 -34 -97 -68 -116 -75 -104 -67 -236 -157 l-105 -72 -43 55 c-53
67 -179 171 -260 214 -33 17 -59 34 -59 37 0 3 23 60 51 127 28 66 64 153 79
191 16 39 37 91 49 118 l20 47 78 -39 c43 -22 98 -54 123 -70 24 -17 47 -27
51 -23 18 20 189 283 189 290 0 15 -51 37 -58 25 -4 -5 -40 -60 -81 -121 l-73
-111 -37 23 c-20 13 -65 38 -99 55 -34 17 -62 35 -62 40 0 4 22 63 50 129 27
66 50 125 50 131 0 5 -12 13 -27 18 l-28 10 -53 -131 c-30 -72 -55 -132 -57
-134 -2 -2 -209 57 -223 63 -1 1 11 65 27 143 30 149 29 152 -18 152 -14 0
-21 -19 -36 -97 -10 -54 -26 -132 -36 -173 -10 -41 -17 -75 -16 -76 1 -1 27
-7 57 -13 100 -21 202 -54 207 -68 5 -13 -18 -75 -77 -208 -15 -33 -31 -71
-35 -85 -4 -14 -30 -76 -57 -138 -27 -63 -48 -115 -46 -116 2 -2 19 -9 38 -16
55 -21 161 -85 205 -123 l40 -36 -104 -105 -105 -105 48 -50 c45 -49 116 -178
116 -212 0 -13 -20 -20 -87 -33 -49 -10 -98 -20 -110 -23 -18 -4 -26 3 -47 44
-32 63 -98 126 -166 157 -113 53 -259 26 -350 -63 -26 -25 -52 -54 -57 -65
-10 -18 -16 -16 -114 24 -57 23 -106 44 -108 46 -8 7 51 93 91 132 l43 42
-108 108 -108 108 66 48 c36 27 65 50 65 52 0 2 -36 56 -80 120 -44 64 -77
121 -74 126 19 31 308 148 367 148 48 0 49 8 18 158 -16 84 -24 145 -19 148 5
3 69 9 141 12 l132 7 -1 33 c0 17 -1 97 -2 177 l-2 145 -30 0 -30 0 0 -144z"/>
</g>
</svg>
