<?xml version="1.0" encoding="iso-8859-1"?>
<!-- Generator: Adobe Illustrator 19.0.0, SVG Export Plug-In . SVG Version: 6.00 Build 0)  -->
<svg version="1.1" id="Capa_1" xmlns="http://www.w3.org/2000/svg" xmlns:xlink="http://www.w3.org/1999/xlink" x="0px" y="0px" 
	 viewBox="0 0 512 512" style="enable-background:new 0 0 512 512;" xml:space="preserve" >
<g>
	<g>
		<path d="M469.073,396.841v-57.548h-94.69v-27.907c24.691-6.627,42.927-29.192,42.927-55.946s-18.235-49.319-42.927-55.946v-64.82
			H271.255v-19.515c24.692-6.627,42.927-29.192,42.927-55.946c0-31.941-25.986-57.928-57.927-57.928
			c-31.941,0-57.927,25.986-57.927,57.928c0,26.754,18.235,49.319,42.927,55.946v19.515H140.533v64.82
			c-24.691,6.627-42.927,29.192-42.927,55.946s18.235,49.319,42.927,55.946v27.907H42.927v57.548
			C18.235,403.467,0,426.033,0,452.788c0,31.941,25.986,57.927,57.927,57.927c31.941,0,57.927-25.985,57.927-57.927
			c0-26.754-18.236-49.32-42.927-55.947v-27.549h168.33v27.606c-24.589,6.696-42.726,29.209-42.726,55.89
			c0,31.941,25.986,57.927,57.927,57.927c31.941,0,57.927-25.985,57.927-57.927c0-26.828-18.334-49.447-43.129-56.005v-27.491
			h167.82v27.549c-24.692,6.627-42.927,29.193-42.927,55.947c0,31.941,25.986,57.927,57.927,57.927S512,484.73,512,452.788
			C512,426.033,493.764,403.467,469.073,396.841z M344.383,199.493c-24.692,6.627-42.927,29.192-42.927,55.946
			c0,26.754,18.236,49.319,42.927,55.946v27.907H170.532v-27.907c24.692-6.627,42.927-29.192,42.927-55.946
			c0-26.754-18.236-49.319-42.927-55.946v-34.821h173.852V199.493z"/>
	</g>
</g>
<g>
</g>
<g>
</g>
<g>
</g>
<g>
</g>
<g>
</g>
<g>
</g>
<g>
</g>
<g>
</g>
<g>
</g>
<g>
</g>
<g>
</g>
<g>
</g>
<g>
</g>
<g>
</g>
<g>
</g>
</svg>
