<?xml version="1.0" standalone="no"?>
<!DOCTYPE svg PUBLIC "-//W3C//DTD SVG 20010904//EN"
 "http://www.w3.org/TR/2001/REC-SVG-20010904/DTD/svg10.dtd">
<svg version="1.0" xmlns="http://www.w3.org/2000/svg"
 width="110.000000pt" height="111.000000pt" viewBox="0 0 110.000000 111.000000"
 preserveAspectRatio="xMidYMid meet">

<g transform="translate(0.000000,111.000000) scale(0.100000,-0.100000)"
fill="#000000" stroke="none">
<path d="M676 681 c-43 -43 -77 -83 -75 -87 2 -5 36 -40 76 -78 48 -45 77 -66
88 -63 25 10 18 30 -26 72 l-40 40 173 5 c165 5 173 6 173 25 0 19 -8 20 -179
23 l-180 2 53 54 c36 36 52 60 48 70 -11 29 -31 17 -111 -63z"/>
<path d="M393 734 c-4 -10 11 -32 43 -65 l48 -49 -215 -2 c-206 -3 -214 -4
-214 -23 0 -19 8 -20 213 -25 l213 -5 -46 -45 c-48 -47 -55 -67 -29 -77 11 -4
39 17 90 68 41 40 74 78 74 84 0 15 -143 155 -158 155 -7 0 -15 -7 -19 -16z"/>
</g>
</svg>
