<?xml version="1.0" standalone="no"?>
<!DOCTYPE svg PUBLIC "-//W3C//DTD SVG 20010904//EN"
 "http://www.w3.org/TR/2001/REC-SVG-20010904/DTD/svg10.dtd">
<svg version="1.0" xmlns="http://www.w3.org/2000/svg"
 width="110.000000pt" height="111.000000pt" viewBox="0 0 110.000000 111.000000"
 preserveAspectRatio="xMidYMid meet">

<g transform="translate(0.000000,111.000000) scale(0.100000,-0.100000)"
fill="#000000" stroke="none">
<path d="M747 1054 c-4 -4 -7 -45 -7 -90 l0 -83 -152 -3 -153 -3 -3 -137 -3
-138 -167 -2 c-159 -3 -167 -4 -167 -23 0 -19 8 -20 167 -23 l167 -2 3 -143 3
-142 157 -3 157 -3 3 -77 3 -77 135 0 c128 0 135 1 135 20 0 19 -8 20 -112 23
l-113 3 0 134 0 134 108 3 c99 3 107 4 107 23 0 19 -7 20 -130 20 l-130 0 -3
-78 -3 -77 -134 0 -135 0 0 260 0 260 130 0 129 0 3 -72 3 -73 130 0 c123 0
130 1 130 20 0 19 -8 20 -107 23 l-108 3 0 139 0 139 103 3 c94 3 102 4 102
23 0 19 -8 20 -121 23 -66 1 -123 -1 -127 -4z"/>
</g>
</svg>
