<?xml version="1.0" standalone="no"?>
<!DOCTYPE svg PUBLIC "-//W3C//DTD SVG 20010904//EN"
 "http://www.w3.org/TR/2001/REC-SVG-20010904/DTD/svg10.dtd">
<svg version="1.0" xmlns="http://www.w3.org/2000/svg"
 width="110.000000pt" height="111.000000pt" viewBox="0 0 110.000000 111.000000"
 preserveAspectRatio="xMidYMid meet">

<g transform="translate(0.000000,111.000000) scale(0.100000,-0.100000)"
fill="#000000" stroke="none">
<path d="M737 1094 c-4 -4 -7 -18 -7 -30 0 -22 -4 -23 -72 -26 l-73 -3 -3 -77
-3 -77 -72 -3 -72 -3 -3 -137 -3 -138 -167 -2 c-159 -3 -167 -4 -167 -23 0
-19 8 -20 167 -23 l167 -2 3 -143 3 -142 157 -3 157 -3 3 -77 3 -77 135 0
c128 0 135 1 135 20 0 19 -8 20 -112 23 l-113 3 0 134 0 134 108 3 c99 3 107
4 107 23 0 19 -7 20 -130 20 l-130 0 -3 -77 -3 -78 -134 0 -135 0 0 260 0 260
50 0 49 0 3 -67 3 -68 72 -3 72 -3 3 -52 3 -51 130 3 c72 1 134 6 139 11 5 5
6 16 3 24 -5 13 -26 16 -117 16 l-110 0 0 80 0 79 108 3 c99 3 107 4 107 23 0
19 -7 20 -130 20 l-130 0 -3 -52 -3 -53 -50 0 -49 0 0 125 0 125 49 0 50 0 3
-42 3 -43 130 0 c123 0 130 1 130 20 0 19 -8 20 -107 23 l-108 3 0 49 0 49
108 3 c99 3 107 4 107 23 0 19 -8 20 -126 23 -69 1 -128 -1 -132 -4z"/>
</g>
</svg>
